<?xml version="1.0" encoding="UTF-8" standalone="no"?><!DOCTYPE svg PUBLIC "-//W3C//DTD SVG 1.1//EN" "http://www.w3.org/Graphics/SVG/1.1/DTD/svg11.dtd"><!-- Generated by graphviz version 2.40.1 (20161225.0304)
 --><!-- Title: endure Pages: 1 --><svg xmlns="http://www.w3.org/2000/svg" xmlns:xlink="http://www.w3.org/1999/xlink" width="847pt" height="578pt" viewBox="0.00 0.00 846.80 578.11">
<g id="graph0" class="graph" transform="scale(1 1) rotate(0) translate(4 574.1106)">
<title>endure</title>
<polygon fill="#ffffff" stroke="transparent" points="-4,4 -4,-574.1106 842.8048,-574.1106 842.8048,4 -4,4"/>
<!-- checker -->
<g id="node1" class="node">
<title>checker</title>
<ellipse fill="none" stroke="#000000" cx="368.9658" cy="-18" rx="41.1103" ry="18"/>
<text text-anchor="middle" x="368.9658" y="-13.8" font-family="Times,serif" font-size="14.00" fill="#000000">checker</text>
</g>
<!-- config -->
<g id="node2" class="node">
<title>config</title>
<ellipse fill="none" stroke="#000000" cx="148.49" cy="-361.0671" rx="35.9154" ry="18"/>
<text text-anchor="middle" x="148.49" y="-356.8671" font-family="Times,serif" font-size="14.00" fill="#000000">config</text>
</g>
<!-- checker&#45;&gt;config -->
<g id="edge1" class="edge">
<title>checker-&gt;config</title>
<path fill="none" stroke="#000000" d="M357.7293,-35.4844C321.6074,-91.6911 208.3187,-267.9718 165.2933,-334.9207"/>
<polygon fill="#000000" stroke="#000000" points="162.1659,-333.3131 159.7039,-343.6179 168.0547,-337.0977 162.1659,-333.3131"/>
</g>
<!-- logger -->
<g id="node3" class="node">
<title>logger</title>
<ellipse fill="none" stroke="#000000" cx="677.1641" cy="-285.0553" rx="35.9154" ry="18"/>
<text text-anchor="middle" x="677.1641" y="-280.8553" font-family="Times,serif" font-size="14.00" fill="#000000">logger</text>
</g>
<!-- checker&#45;&gt;logger -->
<g id="edge2" class="edge">
<title>checker-&gt;logger</title>
<path fill="none" stroke="#000000" d="M387.7811,-34.3035C440.6884,-80.148 590.8425,-210.2572 651.387,-262.7193"/>
<polygon fill="#000000" stroke="#000000" points="649.1336,-265.3979 658.9831,-269.3014 653.7176,-260.1076 649.1336,-265.3979"/>
</g>
<!-- logger&#45;&gt;config -->
<g id="edge9" class="edge">
<title>logger-&gt;config</title>
<path fill="none" stroke="#000000" d="M642.4763,-290.0426C549.7533,-303.3742 296.2134,-339.8277 193.0458,-354.661"/>
<polygon fill="#000000" stroke="#000000" points="192.3612,-351.2233 182.9611,-356.1109 193.3574,-358.1521 192.3612,-351.2233"/>
</g>
<!-- gzip -->
<g id="node4" class="node">
<title>gzip</title>
<ellipse fill="none" stroke="#000000" cx="676.3626" cy="-72.0553" rx="27.8286" ry="18"/>
<text text-anchor="middle" x="676.3626" y="-67.8553" font-family="Times,serif" font-size="14.00" fill="#000000">gzip</text>
</g>
<!-- headers -->
<g id="node5" class="node">
<title>headers</title>
<ellipse fill="none" stroke="#000000" cx="40.524" cy="-392.7688" rx="40.548" ry="18"/>
<text text-anchor="middle" x="40.524" y="-388.5688" font-family="Times,serif" font-size="14.00" fill="#000000">headers</text>
</g>
<!-- headers&#45;&gt;config -->
<g id="edge3" class="edge">
<title>headers-&gt;config</title>
<path fill="none" stroke="#000000" d="M74.3889,-382.8252C84.9,-379.7388 96.5986,-376.3038 107.5379,-373.0917"/>
<polygon fill="#000000" stroke="#000000" points="108.7061,-376.3966 117.3149,-370.221 106.7339,-369.6801 108.7061,-376.3966"/>
</g>
<!-- http -->
<g id="node6" class="node">
<title>http</title>
<ellipse fill="none" stroke="#000000" cx="230.6802" cy="-81.1529" rx="27" ry="18"/>
<text text-anchor="middle" x="230.6802" y="-76.9529" font-family="Times,serif" font-size="14.00" fill="#000000">http</text>
</g>
<!-- http&#45;&gt;checker -->
<g id="edge4" class="edge">
<title>http-&gt;checker</title>
<path fill="none" stroke="#000000" d="M253.2059,-70.8658C274.3114,-61.2272 306.2639,-46.635 331.2559,-35.2215"/>
<polygon fill="#000000" stroke="#000000" points="332.8141,-38.3577 340.4564,-31.0198 329.9061,-31.9903 332.8141,-38.3577"/>
</g>
<!-- http&#45;&gt;config -->
<g id="edge5" class="edge">
<title>http-&gt;config</title>
<path fill="none" stroke="#000000" d="M225.4138,-99.0886C211.4717,-146.5709 173.5217,-275.8169 156.7029,-333.0966"/>
<polygon fill="#000000" stroke="#000000" points="153.278,-332.3375 153.8189,-342.9185 159.9945,-334.3097 153.278,-332.3375"/>
</g>
<!-- http&#45;&gt;logger -->
<g id="edge6" class="edge">
<title>http-&gt;logger</title>
<path fill="none" stroke="#000000" d="M253.1274,-91.4042C325.4693,-124.4417 552.9203,-228.315 641.4281,-268.7352"/>
<polygon fill="#000000" stroke="#000000" points="639.9851,-271.9239 650.5354,-272.8944 642.893,-265.5564 639.9851,-271.9239"/>
</g>
<!-- server -->
<g id="node7" class="node">
<title>server</title>
<ellipse fill="none" stroke="#000000" cx="148.49" cy="-209.0434" rx="34.7476" ry="18"/>
<text text-anchor="middle" x="148.49" y="-204.8434" font-family="Times,serif" font-size="14.00" fill="#000000">server</text>
</g>
<!-- http&#45;&gt;server -->
<g id="edge7" class="edge">
<title>http-&gt;server</title>
<path fill="none" stroke="#000000" d="M219.9353,-97.8724C205.9227,-119.6763 181.2733,-158.0316 164.9108,-183.492"/>
<polygon fill="#000000" stroke="#000000" points="161.9619,-181.6069 159.4999,-191.9117 167.8507,-185.3914 161.9619,-181.6069"/>
</g>
<!-- server&#45;&gt;config -->
<g id="edge20" class="edge">
<title>server-&gt;config</title>
<path fill="none" stroke="#000000" d="M148.49,-227.0795C148.49,-253.252 148.49,-302.0018 148.49,-332.9259"/>
<polygon fill="#000000" stroke="#000000" points="144.9901,-333.0545 148.49,-343.0545 151.9901,-333.0545 144.9901,-333.0545"/>
</g>
<!-- server&#45;&gt;logger -->
<g id="edge21" class="edge">
<title>server-&gt;logger</title>
<path fill="none" stroke="#000000" d="M181.962,-213.856C273.689,-227.0443 529.1233,-263.7702 632.6916,-278.6611"/>
<polygon fill="#000000" stroke="#000000" points="632.4158,-282.1574 642.8122,-280.1162 633.4121,-275.2286 632.4158,-282.1574"/>
</g>
<!-- informer -->
<g id="node8" class="node">
<title>informer</title>
<ellipse fill="none" stroke="#000000" cx="793.9844" cy="-285.0553" rx="44.6414" ry="18"/>
<text text-anchor="middle" x="793.9844" y="-280.8553" font-family="Times,serif" font-size="14.00" fill="#000000">informer</text>
</g>
<!-- informer&#45;&gt;logger -->
<g id="edge8" class="edge">
<title>informer-&gt;logger</title>
<path fill="none" stroke="#000000" d="M749.1527,-285.0553C740.6443,-285.0553 731.7289,-285.0553 723.1843,-285.0553"/>
<polygon fill="#000000" stroke="#000000" points="722.998,-281.5554 712.998,-285.0553 722.9979,-288.5554 722.998,-281.5554"/>
</g>
<!-- metrics -->
<g id="node9" class="node">
<title>metrics</title>
<ellipse fill="none" stroke="#000000" cx="230.6802" cy="-488.9576" rx="39.4196" ry="18"/>
<text text-anchor="middle" x="230.6802" y="-484.7576" font-family="Times,serif" font-size="14.00" fill="#000000">metrics</text>
</g>
<!-- metrics&#45;&gt;config -->
<g id="edge11" class="edge">
<title>metrics-&gt;config</title>
<path fill="none" stroke="#000000" d="M219.4243,-471.4432C205.4065,-449.631 181.3388,-412.1809 165.1744,-387.0286"/>
<polygon fill="#000000" stroke="#000000" points="167.9607,-384.8904 159.6099,-378.3701 162.072,-388.6749 167.9607,-384.8904"/>
</g>
<!-- metrics&#45;&gt;logger -->
<g id="edge10" class="edge">
<title>metrics-&gt;logger</title>
<path fill="none" stroke="#000000" d="M258.6098,-476.2026C336.355,-440.6976 555.2153,-340.7474 641.5271,-301.3302"/>
<polygon fill="#000000" stroke="#000000" points="643.0183,-304.4969 650.6606,-297.159 640.1103,-298.1295 643.0183,-304.4969"/>
</g>
<!-- redis -->
<g id="node10" class="node">
<title>redis</title>
<ellipse fill="none" stroke="#000000" cx="368.9658" cy="-552.1106" rx="29.6127" ry="18"/>
<text text-anchor="middle" x="368.9658" y="-547.9106" font-family="Times,serif" font-size="14.00" fill="#000000">redis</text>
</g>
<!-- redis&#45;&gt;config -->
<g id="edge13" class="edge">
<title>redis-&gt;config</title>
<path fill="none" stroke="#000000" d="M351.6655,-537.1197C313.0725,-503.6787 219.7721,-422.8335 174.2859,-383.4194"/>
<polygon fill="#000000" stroke="#000000" points="176.4815,-380.6908 166.632,-376.7873 171.8975,-385.9811 176.4815,-380.6908"/>
</g>
<!-- redis&#45;&gt;logger -->
<g id="edge12" class="edge">
<title>redis-&gt;logger</title>
<path fill="none" stroke="#000000" d="M386.419,-536.9873C438.0906,-492.2136 590.4818,-360.1659 651.4876,-307.3041"/>
<polygon fill="#000000" stroke="#000000" points="653.8692,-309.8716 659.1347,-300.6778 649.2851,-304.5813 653.8692,-309.8716"/>
</g>
<!-- reload -->
<g id="node11" class="node">
<title>reload</title>
<ellipse fill="none" stroke="#000000" cx="519.4422" cy="-39.6352" rx="35.3315" ry="18"/>
<text text-anchor="middle" x="519.4422" y="-35.4352" font-family="Times,serif" font-size="14.00" fill="#000000">reload</text>
</g>
<!-- reload&#45;&gt;config -->
<g id="edge15" class="edge">
<title>reload-&gt;config</title>
<path fill="none" stroke="#000000" d="M501.5504,-55.1386C441.21,-107.4238 245.0222,-277.4215 174.2461,-338.7493"/>
<polygon fill="#000000" stroke="#000000" points="171.9023,-336.149 166.6368,-345.3428 176.4864,-341.4393 171.9023,-336.149"/>
</g>
<!-- reload&#45;&gt;logger -->
<g id="edge14" class="edge">
<title>reload-&gt;logger</title>
<path fill="none" stroke="#000000" d="M530.5329,-56.8927C557.7951,-99.3136 628.208,-208.8782 660.5155,-259.1497"/>
<polygon fill="#000000" stroke="#000000" points="657.7348,-261.2966 666.0856,-267.8169 663.6236,-257.5121 657.7348,-261.2966"/>
</g>
<!-- resetter -->
<g id="node12" class="node">
<title>resetter</title>
<ellipse fill="none" stroke="#000000" cx="634.334" cy="-139.1896" rx="39.3984" ry="18"/>
<text text-anchor="middle" x="634.334" y="-134.9896" font-family="Times,serif" font-size="14.00" fill="#000000">resetter</text>
</g>
<!-- reload&#45;&gt;resetter -->
<g id="edge16" class="edge">
<title>reload-&gt;resetter</title>
<path fill="none" stroke="#000000" d="M537.394,-55.1906C556.3094,-71.5808 586.2973,-97.5655 607.913,-116.2956"/>
<polygon fill="#000000" stroke="#000000" points="605.8974,-119.1803 615.747,-123.0838 610.4815,-113.89 605.8974,-119.1803"/>
</g>
<!-- resetter&#45;&gt;logger -->
<g id="edge17" class="edge">
<title>resetter-&gt;logger</title>
<path fill="none" stroke="#000000" d="M639.5858,-157.0756C646.9391,-182.1185 660.3709,-227.8629 669.0252,-257.3369"/>
<polygon fill="#000000" stroke="#000000" points="665.6937,-258.4141 671.8693,-267.023 672.4101,-256.442 665.6937,-258.4141"/>
</g>
<!-- rpc -->
<g id="node13" class="node">
<title>rpc</title>
<ellipse fill="none" stroke="#000000" cx="519.4422" cy="-530.4753" rx="27" ry="18"/>
<text text-anchor="middle" x="519.4422" y="-526.2753" font-family="Times,serif" font-size="14.00" fill="#000000">rpc</text>
</g>
<!-- rpc&#45;&gt;config -->
<g id="edge18" class="edge">
<title>rpc-&gt;config</title>
<path fill="none" stroke="#000000" d="M497.0728,-520.2596C434.9583,-491.8929 259.9649,-411.976 184.1989,-377.3749"/>
<polygon fill="#000000" stroke="#000000" points="185.5888,-374.162 175.0385,-373.1915 182.6809,-380.5294 185.5888,-374.162"/>
</g>
<!-- rpc&#45;&gt;logger -->
<g id="edge19" class="edge">
<title>rpc-&gt;logger</title>
<path fill="none" stroke="#000000" d="M530.283,-513.6066C557.3425,-471.5012 628.0047,-361.5488 660.4439,-311.0724"/>
<polygon fill="#000000" stroke="#000000" points="663.575,-312.6741 666.037,-302.3692 657.6862,-308.8895 663.575,-312.6741"/>
</g>
<!-- static -->
<g id="node14" class="node">
<title>static</title>
<ellipse fill="none" stroke="#000000" cx="634.334" cy="-430.921" rx="31.3333" ry="18"/>
<text text-anchor="middle" x="634.334" y="-426.721" font-family="Times,serif" font-size="14.00" fill="#000000">static</text>
</g>
<!-- static&#45;&gt;config -->
<g id="edge22" class="edge">
<title>static-&gt;config</title>
<path fill="none" stroke="#000000" d="M603.5737,-426.4983C520.3538,-414.5331 290.5052,-381.4859 193.0716,-367.477"/>
<polygon fill="#000000" stroke="#000000" points="193.3583,-363.9823 182.9619,-366.0235 192.362,-370.9111 193.3583,-363.9823"/>
</g>
<!-- static&#45;&gt;logger -->
<g id="edge23" class="edge">
<title>static-&gt;logger</title>
<path fill="none" stroke="#000000" d="M639.5858,-413.035C646.9391,-387.9921 660.3709,-342.2476 669.0252,-312.7737"/>
<polygon fill="#000000" stroke="#000000" points="672.4101,-313.6686 671.8693,-303.0876 665.6937,-311.6964 672.4101,-313.6686"/>
</g>
</g>
</svg>